<svg width="32" height="32" viewBox="0 0 32 32" fill="none" xmlns="http://www.w3.org/2000/svg">
<circle cx="16" cy="16" r="16" fill="white"/>
<path d="M23.5833 13.8333H22.695L20.8533 8.76334C20.7009 8.34529 20.4239 7.98405 20.0597 7.72834C19.6955 7.47264 19.2617 7.33478 18.8167 7.33334H17.0833C16.4875 7.33334 16 7.82084 16 8.41668C16 9.01251 16.4875 9.50001 17.0833 9.50001H18.8167L20.3983 13.8333H15.1875L14.7975 12.75H14.895C15.4908 12.75 15.9783 12.2625 15.9783 11.6667C15.9783 11.0708 15.4908 10.5833 14.895 10.5833H11.6667C11.0708 10.5833 10.5833 11.0708 10.5833 11.6667C10.5833 12.2625 11.0708 12.75 11.6667 12.75H12.4792L14.4508 18.1667H13.725C13.2483 15.7508 11.2225 13.9633 8.6875 13.8442C5.65417 13.6925 3 16.2167 3 19.25C3 22.2833 5.38333 24.6667 8.41667 24.6667C11.0817 24.6667 13.2375 22.8358 13.725 20.3333H18.275C18.7517 22.7492 20.7775 24.5367 23.3125 24.6558C26.3458 24.7967 29 22.2833 29 19.2392C29 16.2167 26.6167 13.8333 23.5833 13.8333ZM9.5 20.3333H11.4717C11.0167 21.6658 9.73833 22.5867 8.2 22.4892C6.58583 22.3917 5.2425 21.0267 5.16667 19.4017C5.09083 17.5058 6.5425 16 8.41667 16C9.8575 16 11.0383 16.8992 11.4717 18.1667H9.5C8.90417 18.1667 8.41667 18.6542 8.41667 19.25C8.41667 19.8458 8.90417 20.3333 9.5 20.3333ZM18.275 18.1667H16.7583L15.9675 16H19.25C18.7733 16.6283 18.4267 17.3542 18.275 18.1667ZM23.4533 22.5C21.785 22.435 20.3767 21.0158 20.3333 19.3367C20.3117 18.2967 20.7558 17.3867 21.4708 16.78L22.1425 18.6217C22.3483 19.185 22.9658 19.4775 23.5292 19.2717C24.0925 19.0658 24.385 18.4483 24.1792 17.885L23.4967 16.0108L23.5075 16C23.9418 15.9852 24.3747 16.0586 24.7799 16.2157C25.1851 16.3728 25.5543 16.6104 25.8651 16.9141C26.1759 17.2179 26.422 17.5815 26.5884 17.9829C26.7548 18.3844 26.8381 18.8154 26.8333 19.25C26.8333 21.1133 25.3383 22.565 23.4533 22.5Z" fill="url(#paint0_linear_44_1284)"/>
<defs>
<linearGradient id="paint0_linear_44_1284" x1="16" y1="7.33334" x2="16" y2="24.6667" gradientUnits="userSpaceOnUse">
<stop stop-color="#FFB60D"/>
<stop offset="1" stop-color="#E59317"/>
</linearGradient>
</defs>
</svg>
